<svg xmlns="http://www.w3.org/2000/svg" width="364.847" height="100" viewBox="0 0 364.847 100">
  <g id="Group_17" data-name="Group 17" transform="translate(-412.729 -390)">
    <path id="Path_1307" data-name="Path 1307" d="M834.065,666.722a2.935,2.935,0,0,0-.2-1.093,2.575,2.575,0,0,0-.553-.862,2.456,2.456,0,0,0-.856-.56,2.976,2.976,0,0,0-1.105-.2h-1.53v5.427h1.53a3.051,3.051,0,0,0,1.105-.193,2.363,2.363,0,0,0,.856-.553,2.6,2.6,0,0,0,.553-.849,2.878,2.878,0,0,0,.2-1.093Zm1.723,1.775a4.187,4.187,0,0,1-.983,1.428,4.665,4.665,0,0,1-1.517.952,5.231,5.231,0,0,1-1.936.348h-3.511v-9h3.511a5.329,5.329,0,0,1,1.936.34,4.582,4.582,0,0,1,1.517.945,4.214,4.214,0,0,1,.983,1.422,4.468,4.468,0,0,1,.348,1.768v.025a4.513,4.513,0,0,1-.348,1.775m-20.422,2.727v-9h6.778v1.762h-4.823v1.826h4.244v1.762h-4.244v1.89h4.887v1.762Zm-8,0V667.61h-3.652v3.614h-1.98v-9h1.98v3.562h3.652v-3.562h1.981v9Zm-11.457-1.473a2.43,2.43,0,0,1-.677.875,3.066,3.066,0,0,1-1.036.54,4.517,4.517,0,0,1-1.336.187,5.961,5.961,0,0,1-2.019-.354,5.35,5.35,0,0,1-1.8-1.087l1.171-1.4a5.817,5.817,0,0,0,1.267.8,3.378,3.378,0,0,0,1.421.3,1.734,1.734,0,0,0,.959-.225.709.709,0,0,0,.341-.624v-.026a.787.787,0,0,0-.071-.34.715.715,0,0,0-.271-.277,2.818,2.818,0,0,0-.554-.257,9.547,9.547,0,0,0-.922-.27,11.356,11.356,0,0,1-1.238-.373,3.483,3.483,0,0,1-.941-.508,2.059,2.059,0,0,1-.6-.752,2.61,2.61,0,0,1-.213-1.119v-.025a2.616,2.616,0,0,1,.229-1.113,2.542,2.542,0,0,1,.645-.856,2.912,2.912,0,0,1,.992-.552,3.985,3.985,0,0,1,1.271-.193,5.387,5.387,0,0,1,1.819.3,5.281,5.281,0,0,1,1.524.849l-1.029,1.491a6.54,6.54,0,0,0-1.183-.649,3.022,3.022,0,0,0-1.157-.238,1.4,1.4,0,0,0-.868.226.683.683,0,0,0-.289.559v.025a.815.815,0,0,0,.083.38.768.768,0,0,0,.3.29,2.882,2.882,0,0,0,.6.244c.253.077.574.167.96.27a9.286,9.286,0,0,1,1.218.4,3.421,3.421,0,0,1,.9.54,2.063,2.063,0,0,1,.554.74,2.5,2.5,0,0,1,.187,1.016v.025a2.779,2.779,0,0,1-.243,1.19M779.6,664.536l-1.2,2.92H780.8Zm2.727,6.688-.823-2.02H777.7l-.823,2.02h-2.019l3.858-9.067h1.827l3.859,9.067Zm-19.175,0v-9h6.778v1.762h-4.823v1.826h4.245v1.762h-4.245v1.89h4.887v1.762Zm-11.818,0v-9h1.98v7.214H757.8v1.788Zm-7.7,0-4.36-5.723v5.723h-1.955v-9h1.826l4.218,5.543v-5.543h1.955v9Zm-12.468-2.135a3.379,3.379,0,0,1-.791,1.267,3.238,3.238,0,0,1-1.248.759,5.037,5.037,0,0,1-1.633.251,3.57,3.57,0,0,1-3.9-4v-5.144h1.981v5.092a2.384,2.384,0,0,0,.514,1.666,1.842,1.842,0,0,0,1.428.559,1.875,1.875,0,0,0,1.427-.54,2.27,2.27,0,0,0,.515-1.62v-5.156h1.98V667.3a5.229,5.229,0,0,1-.276,1.788m-22.847,2.135-4.359-5.723v5.723H702v-9h1.826l4.218,5.543v-5.543H710v9Zm-14-4.5a3.01,3.01,0,0,0-.2-1.093,2.693,2.693,0,0,0-1.434-1.511,2.639,2.639,0,0,0-1.093-.225,2.686,2.686,0,0,0-1.1.219,2.507,2.507,0,0,0-.849.6,2.834,2.834,0,0,0-.553.894,2.942,2.942,0,0,0-.2,1.087v.025a2.987,2.987,0,0,0,.2,1.093,2.708,2.708,0,0,0,1.428,1.511,2.607,2.607,0,0,0,1.1.225,2.717,2.717,0,0,0,1.093-.218,2.5,2.5,0,0,0,.856-.6,2.854,2.854,0,0,0,.554-.894,2.961,2.961,0,0,0,.2-1.087Zm1.71,1.807a4.608,4.608,0,0,1-2.514,2.482,5.208,5.208,0,0,1-3.839,0,4.754,4.754,0,0,1-1.511-.99,4.429,4.429,0,0,1-.99-1.466,4.606,4.606,0,0,1-.354-1.807v-.026a4.546,4.546,0,0,1,.36-1.807,4.677,4.677,0,0,1,1-1.479,4.63,4.63,0,0,1,1.518-1,5.207,5.207,0,0,1,3.839,0,4.767,4.767,0,0,1,1.51.99,4.431,4.431,0,0,1,.99,1.466,4.619,4.619,0,0,1,.354,1.807v.025a4.561,4.561,0,0,1-.36,1.807m-16.9-6.308h1.98v9h-1.98Zm-8.2,1.826v7.176h-1.981v-7.176H666.2v-1.826h7.459v1.826Zm-14.121.488-1.2,2.92h2.391Zm2.726,6.688-.823-2.02h-3.807l-.823,2.02h-2.019l3.858-9.067h1.826l3.859,9.067Zm-15.587.064h-1.748l-3.64-9.067h2.186l2.354,6.339,2.353-6.339h2.134Zm-12.307-4.566a3,3,0,0,0-.2-1.093A2.69,2.69,0,0,0,630,664.118a2.64,2.64,0,0,0-1.093-.225,2.688,2.688,0,0,0-1.1.219,2.507,2.507,0,0,0-.848.6,2.853,2.853,0,0,0-.553.894,2.948,2.948,0,0,0-.2,1.087v.025a2.993,2.993,0,0,0,.2,1.093,2.709,2.709,0,0,0,1.428,1.511,2.607,2.607,0,0,0,1.1.225,2.725,2.725,0,0,0,1.094-.218,2.5,2.5,0,0,0,.855-.6,2.853,2.853,0,0,0,.553-.894,2.951,2.951,0,0,0,.2-1.087Zm1.71,1.807a4.61,4.61,0,0,1-2.514,2.482,5.209,5.209,0,0,1-3.839,0,4.763,4.763,0,0,1-1.511-.99,4.426,4.426,0,0,1-.99-1.466,4.6,4.6,0,0,1-.354-1.807v-.026a4.548,4.548,0,0,1,.36-1.807,4.608,4.608,0,0,1,2.514-2.482,5.207,5.207,0,0,1,3.839,0,4.773,4.773,0,0,1,1.511.99,4.446,4.446,0,0,1,.99,1.466,4.621,4.621,0,0,1,.354,1.807v.025a4.558,4.558,0,0,1-.36,1.807m-16.513,2.694-4.36-5.723v5.723h-1.955v-9h1.826l4.218,5.543v-5.543h1.955v9Zm-14.018,0-4.36-5.723v5.723h-1.955v-9h1.826l4.218,5.543v-5.543h1.955v9Zm-14.4-9h1.98v9h-1.98Z" transform="translate(-117.118 -181.378)" fill="#243665"/>
    <path id="Path_1308" data-name="Path 1308" d="M412.729,429.328v5.653h11.826V481.4h6.471V434.981h11.828v-5.653Z" transform="translate(0 -26.219)" fill="#243665"/>
    <path id="Path_1309" data-name="Path 1309" d="M588.2,429.329v5.429H569.825v17.034h16.513v5.429H569.825v18.744H588.2v5.43H563.353V429.329Z" transform="translate(-100.416 -26.219)" fill="#243665"/>
    <path id="Path_1310" data-name="Path 1310" d="M705.16,462.205V481.4H698.69V429.328h6.471v22.463l14.132-22.463h7.067L712,452.313,727.251,481.4h-7.438l-11.826-23.43Z" transform="translate(-190.64 -26.219)" fill="#243665"/>
    <path id="Path_1311" data-name="Path 1311" d="M848.176,481.4h-6.025V429.328h10.562l11.752,46.563V429.328h6.025V481.4H859.854l-11.678-46.563Z" transform="translate(-286.282 -26.219)" fill="#243665"/>
    <path id="Path_1312" data-name="Path 1312" d="M1070.7,478.234q-3.458-3.16-3.458-9.483V441.973q0-6.322,3.458-9.484t9.93-3.161h10.562v5.653h-11.305a6.187,6.187,0,0,0-4.462,1.636,5.254,5.254,0,0,0-1.711,3.942v29.6a5.253,5.253,0,0,0,1.711,3.943,6.187,6.187,0,0,0,4.462,1.636h11.305V481.4h-10.562q-6.472,0-9.93-3.161" transform="translate(-436.341 -26.219)" fill="#243665"/>
    <path id="Path_1313" data-name="Path 1313" d="M1435.009,436.172a5.755,5.755,0,0,0-4.128-1.265h-8.405v19.34h8.405a4.687,4.687,0,0,0,5.43-5.43v-8.554a5.514,5.514,0,0,0-1.3-4.09m-12.533,23.653V481.4H1416V429.328h13.983q6.323,0,9.559,2.79t3.236,8.814v7.141q0,8.406-6.694,10.488l10.339,22.835h-7.066l-9.6-21.57Z" transform="translate(-668.85 -26.219)" fill="#243665"/>
    <path id="Path_1314" data-name="Path 1314" d="M987.594,429.328V481.4h6.471V429.328Z" transform="translate(-383.243 -26.219)" fill="#243665"/>
    <path id="Path_1315" data-name="Path 1315" d="M1244.119,473.452a6.192,6.192,0,0,0,1.637-4.463V442.332a6.192,6.192,0,0,0-1.637-4.464,5.256,5.256,0,0,0-3.942-1.71h-29.6a5.256,5.256,0,0,0-3.942,1.71,6.193,6.193,0,0,0-1.637,4.464v26.657a6.193,6.193,0,0,0,1.637,4.463,5.258,5.258,0,0,0,3.942,1.71h29.6a5.259,5.259,0,0,0,3.942-1.71m-41.617,4.723q-3.162-3.458-3.161-9.93V443.076q0-6.471,3.161-9.93t9.484-3.459h26.778q6.321,0,9.484,3.459t3.161,9.93v25.169q0,6.472-3.161,9.93t-9.484,3.459h-26.778q-6.323,0-9.484-3.459" transform="translate(-524.408 -26.458)" fill="#243665"/>
    <path id="Path_1316" data-name="Path 1316" d="M1199.34,390v6.471h52.067V390Z" transform="translate(-524.407)" fill="#34ac4a"/>
  </g>
</svg>
